HIERARCHY
ROOT Hips
{
  OFFSET 43.1054 81.2759 -17.0066
  CHANNELS 6 Xposition Yposition Zposition Zrotation Xrotation Yrotation
  JOINT Chest
  {
    OFFSET 1.23234e-007 14.8421 1.27319e-009
    CHANNELS 6 Xposition Yposition Zposition Zrotation Xrotation Yrotation
    JOINT LeftCollar
    {
      OFFSET 6.64893 27.3161 3.27471
      CHANNELS 6 Xposition Yposition Zposition Zrotation Xrotation Yrotation
      JOINT LeftUpArm
      {
        OFFSET 10.8584 2.41798 -0.945791
        CHANNELS 6 Xposition Yposition Zposition Zrotation Xrotation Yrotation
        JOINT LeftLowArm
        {
          OFFSET 3.77631 -24.5904 -1.70468
          CHANNELS 6 Xposition Yposition Zposition Zrotation Xrotation Yrotation
          JOINT LeftHand
          {
            OFFSET 1.01026 -21.1231 1.74131
            CHANNELS 6 Xposition Yposition Zposition Zrotation Xrotation Yrotation
            End Site
            {
              OFFSET 1.17583e-006 -9.81266 -2.89439e-008
            }
          }
        }
      }
    }
    JOINT RightCollar
    {
      OFFSET -6.11406 27.2248 4.23427
      CHANNELS 6 Xposition Yposition Zposition Zrotation Xrotation Yrotation
      JOINT RightUpArm
      {
        OFFSET -10.4566 2.3285 -0.910794
        CHANNELS 6 Xposition Yposition Zposition Zrotation Xrotation Yrotation
        JOINT RightLowArm
        {
          OFFSET -3.86856 -25.191 -1.74633
          CHANNELS 6 Xposition Yposition Zposition Zrotation Xrotation Yrotation
          JOINT RightHand
          {
            OFFSET -1.04759 -20.6242 1.75213
            CHANNELS 6 Xposition Yposition Zposition Zrotation Xrotation Yrotation
            End Site
            {
              OFFSET -2.03487e-006 -9.50367 -4.31372e-006
            }
          }
        }
      }
    }
    JOINT Neck
    {
      OFFSET 0.51659 29.8236 6.51843
      CHANNELS 6 Xposition Yposition Zposition Zrotation Xrotation Yrotation
      JOINT Head
      {
        OFFSET 1.16803e-007 7.47049 6.44171e-007
        CHANNELS 6 Xposition Yposition Zposition Zrotation Xrotation Yrotation
        End Site
        {
          OFFSET -4.32676e-008 16.2908 2.16786e-007
        }
      }
    }
  }
  JOINT LeftUpLeg
  {
    OFFSET 9 -3.38008e-006 -5.22997e-009
    CHANNELS 6 Xposition Yposition Zposition Zrotation Xrotation Yrotation
    JOINT LeftLowLeg
    {
      OFFSET -0.575 -51.431 3.90177
      CHANNELS 6 Xposition Yposition Zposition Zrotation Xrotation Yrotation
      JOINT LeftFoot
      {
        OFFSET 2.13082e-007 -43.5882 -3.90177
        CHANNELS 6 Xposition Yposition Zposition Zrotation Xrotation Yrotation
        End Site
        {
          OFFSET 7.44796e-007 -6.93413 15.0046
        }
      }
    }
  }
  JOINT RightUpLeg
  {
    OFFSET -9 6.86154e-007 -3.1954e-009
    CHANNELS 6 Xposition Yposition Zposition Zrotation Xrotation Yrotation
    JOINT RightLowLeg
    {
      OFFSET 0.575 -51.4311 3.90177
      CHANNELS 6 Xposition Yposition Zposition Zrotation Xrotation Yrotation
      JOINT RightFoot
      {
        OFFSET -7.46079e-007 -43.5882 -3.90177
        CHANNELS 6 Xposition Yposition Zposition Zrotation Xrotation Yrotation
        End Site
        {
          OFFSET 4.66716e-007 -6.93413 15.0046
        }
      }
    }
  }
}
MOTION
Frames:	11
Frame Time:	0.0333333
43.1054 81.2759 -17.0066 0.798681 -8.54711 -5.23616 1.23234e-007 14.8421 1.27319e-009 -4.02514 7.82957 0.652465 6.64893 27.3161 3.27471 -2.94784 5.93879 -4.20517 10.8584 2.41798 -0.945791 56.8922 -62.7013 2.37071 3.77631 -24.5904 -1.70468 2.54202 -20.2372 -53.5208 1.01026 -21.1231 1.74131 15.0556 -1.77529 1.65078 -6.11406 27.2248 4.23427 -1.96452 7.32629 3.42623 -10.4566 2.3285 -0.910794 -19.185 -75.0225 31.2046 -3.86856 -25.191 -1.74633 -11.3381 -3.36051 82.5496 -1.04759 -20.6242 1.75213 -15.5556 3.35151 -1.50113 0.51659 29.8236 6.51843 0.259512 -15.3687 1.25409 1.16803e-007 7.47049 6.44171e-007 -0.821008 20.9665 1.75098 9 -3.38008e-006 -5.22997e-009 19.6965 -18.664 17.8405 -0.575 -51.431 3.90177 -10.0822 64.7808 -19.8176 2.13082e-007 -43.5882 -3.90177 28.159 -20.048 2.15682 -9 6.86154e-007 -3.1954e-009 -19.6234 -23.3363 -16.3723 0.575 -51.4311 3.90177 -22.5654 65.5047 43.3647 -7.46079e-007 -43.5882 -3.90177 -13.6444 -26.4067 -1.62763 
43.1077 81.2645 -17.0035 0.807466 -8.5523 -5.22851 1.23234e-007 14.8421 1.27319e-009 -4.33688 7.92511 0.823623 6.64893 27.3161 3.27471 -2.94784 5.93879 -4.20517 10.8584 2.41798 -0.945791 57.3682 -62.8721 2.48001 3.77631 -24.5904 -1.70468 2.34073 -20.5231 -53.4835 1.01026 -21.1231 1.74131 13.9685 -3.11097 1.57465 -6.11406 27.2248 4.23427 -1.96452 7.32629 3.42623 -10.4566 2.3285 -0.910794 -19.9824 -74.7868 30.1253 -3.86856 -25.191 -1.74633 -11.366 -3.78434 82.7145 -1.04759 -20.6242 1.75213 -15.4085 3.4157 -1.48306 0.51659 29.8236 6.51843 1.18081 -16.1974 0.952629 1.16803e-007 7.47049 6.44171e-007 -1.77152 21.394 1.97901 9 -3.38008e-006 -5.22997e-009 19.6965 -18.679 17.8402 -0.575 -51.431 3.90177 -10.1016 64.8204 -19.8286 2.13082e-007 -43.5882 -3.90177 28.188 -20.0897 2.17008 -9 6.86154e-007 -3.1954e-009 -19.6389 -23.3589 -16.3683 0.575 -51.4311 3.90177 -22.6338 65.5623 43.4189 -7.46079e-007 -43.5882 -3.90177 -13.6378 -26.4001 -1.62588 
43.1076 81.2465 -17.0135 0.829474 -8.52356 -5.23677 1.23234e-007 14.8421 1.27319e-009 -4.37689 7.92071 0.871358 6.64893 27.3161 3.27471 -2.94784 5.93879 -4.20517 10.8584 2.41798 -0.945791 57.3039 -62.9674 2.27937 3.77631 -24.5904 -1.70468 2.44334 -20.3668 -53.5269 1.01026 -21.1231 1.74131 14.7793 -2.30343 1.64595 -6.11406 27.2248 4.23427 -1.96452 7.32629 3.42623 -10.4566 2.3285 -0.910794 -20.0536 -74.8138 30.1381 -3.86856 -25.191 -1.74633 -11.319 -3.81564 82.6142 -1.04759 -20.6242 1.75213 -15.3183 3.54008 -1.4664 0.51659 29.8236 6.51843 1.10507 -16.2427 0.886562 1.16803e-007 7.47049 6.44171e-007 -1.61844 21.4562 1.85045 9 -3.38008e-006 -5.22997e-009 19.7327 -18.7182 17.908 -0.575 -51.431 3.90177 -10.1853 64.862 -19.8572 2.13082e-007 -43.5882 -3.90177 28.1654 -20.0197 2.15003 -9 6.86154e-007 -3.1954e-009 -19.6446 -23.4029 -16.3529 0.575 -51.4311 3.90177 -22.6686 65.5626 43.3993 -7.46079e-007 -43.5882 -3.90177 -13.6686 -26.5058 -1.64261 
43.1112 81.2151 -17.0002 0.867159 -8.4607 -5.16055 1.23234e-007 14.8421 1.27319e-009 -4.50738 7.83838 0.806546 6.64893 27.3161 3.27471 -2.94784 5.93879 -4.20517 10.8584 2.41798 -0.945791 57.5085 -62.8525 2.33498 3.77631 -24.5904 -1.70468 2.28793 -20.6554 -53.5506 1.01026 -21.1231 1.74131 15.1083 -2.09673 1.67984 -6.11406 27.2248 4.23427 -1.96452 7.32629 3.42623 -10.4566 2.3285 -0.910794 -19.7863 -74.7457 30.3496 -3.86856 -25.191 -1.74633 -11.3393 -3.85799 82.4706 -1.04759 -20.6242 1.75213 -15.1217 3.51861 -1.44977 0.51659 29.8236 6.51843 1.1386 -16.2741 0.876992 1.16803e-007 7.47049 6.44171e-007 -1.38807 21.5699 1.76744 9 -3.38008e-006 -5.22997e-009 19.6604 -18.8118 17.8186 -0.575 -51.431 3.90177 -10.1476 64.8789 -19.7954 2.13082e-007 -43.5882 -3.90177 28.234 -20.1246 2.18302 -9 6.86154e-007 -3.1954e-009 -19.725 -23.4781 -16.4081 0.575 -51.4311 3.90177 -22.7274 65.6579 43.5173 -7.46079e-007 -43.5882 -3.90177 -13.6278 -26.3733 -1.62133 
43.1159 81.2142 -16.9752 0.891851 -8.46391 -5.16223 1.23234e-007 14.8421 1.27319e-009 -4.49159 7.81493 0.712481 6.64893 27.3161 3.27471 -2.94784 5.93879 -4.20517 10.8584 2.41798 -0.945791 57.6506 -62.5832 2.60054 3.77631 -24.5904 -1.70468 2.08159 -20.8828 -53.708 1.01026 -21.1231 1.74131 14.6545 -2.81397 1.66017 -6.11406 27.2248 4.23427 -1.96452 7.32629 3.42623 -10.4566 2.3285 -0.910794 -19.1904 -74.769 30.9898 -3.86856 -25.191 -1.74633 -11.3601 -3.94309 82.2303 -1.04759 -20.6242 1.75213 -14.9004 3.26104 -1.44566 0.51659 29.8236 6.51843 0.955597 -16.2966 0.884512 1.16803e-007 7.47049 6.44171e-007 -1.24625 21.6784 1.68907 9 -3.38008e-006 -5.22997e-009 19.6211 -18.8058 17.7976 -0.575 -51.431 3.90177 -10.1586 64.8901 -19.7769 2.13082e-007 -43.5882 -3.90177 28.2098 -20.0874 2.17131 -9 6.86154e-007 -3.1954e-009 -19.7394 -23.4554 -16.4097 0.575 -51.4311 3.90177 -22.7604 65.6448 43.4293 -7.46079e-007 -43.5882 -3.90177 -13.6499 -26.4887 -1.63784 
43.1134 81.2059 -16.9545 0.900069 -8.53263 -5.14773 1.23234e-007 14.8421 1.27319e-009 -4.56152 7.83235 0.752292 6.64893 27.3161 3.27471 -2.94784 5.93879 -4.20517 10.8584 2.41798 -0.945791 57.4674 -62.6717 2.35664 3.77631 -24.5904 -1.70468 2.18876 -20.86 -53.5102 1.01026 -21.1231 1.74131 13.6949 -4.10196 1.58759 -6.11406 27.2248 4.23427 -1.96452 7.32629 3.42623 -10.4566 2.3285 -0.910794 -19.077 -74.6604 31.1357 -3.86856 -25.191 -1.74633 -11.3675 -3.92393 82.2614 -1.04759 -20.6242 1.75213 -14.9156 3.26713 -1.44672 0.51659 29.8236 6.51843 1.01986 -16.0942 0.871575 1.16803e-007 7.47049 6.44171e-007 -1.29304 21.5941 1.71037 9 -3.38008e-006 -5.22997e-009 19.5681 -18.7417 17.7343 -0.575 -51.431 3.90177 -10.1161 64.8999 -19.7887 2.13082e-007 -43.5882 -3.90177 28.1473 -20.0249 2.14987 -9 6.86154e-007 -3.1954e-009 -19.7611 -23.3942 -16.3991 0.575 -51.4311 3.90177 -22.8108 65.6866 43.5318 -7.46079e-007 -43.5882 -3.90177 -13.6269 -26.4268 -1.6273 
43.1254 81.2128 -16.9283 0.898052 -8.50538 -5.18797 1.23234e-007 14.8421 1.27319e-009 -4.64233 7.84693 0.73816 6.64893 27.3161 3.27471 -2.94784 5.93879 -4.20517 10.8584 2.41798 -0.945791 58.0378 -62.3381 2.78663 3.77631 -24.5904 -1.70468 1.74479 -21.6354 -53.8101 1.01026 -21.1231 1.74131 14.2237 -2.81862 1.59602 -6.11406 27.2248 4.23427 -1.96452 7.32629 3.42623 -10.4566 2.3285 -0.910794 -19.0386 -74.71 31.113 -3.86856 -25.191 -1.74633 -11.2875 -3.94174 82.6169 -1.04759 -20.6242 1.75213 -15.1241 3.32843 -1.46234 0.51659 29.8236 6.51843 1.0853 -16.2139 0.926827 1.16803e-007 7.47049 6.44171e-007 -1.35995 21.6237 1.79403 9 -3.38008e-006 -5.22997e-009 19.5448 -18.7484 17.705 -0.575 -51.431 3.90177 -10.0946 64.9084 -19.7415 2.13082e-007 -43.5882 -3.90177 28.1791 -20.0835 2.16772 -9 6.86154e-007 -3.1954e-009 -19.7618 -23.3742 -16.4053 0.575 -51.4311 3.90177 -22.7473 65.6233 43.4645 -7.46079e-007 -43.5882 -3.90177 -13.6752 -26.5809 -1.65223 
43.1315 81.216 -16.909 0.883502 -8.50119 -5.19922 1.23234e-007 14.8421 1.27319e-009 -4.61526 7.77672 0.760069 6.64893 27.3161 3.27471 -2.94784 5.93879 -4.20517 10.8584 2.41798 -0.945791 57.9193 -62.3404 2.48729 3.77631 -24.5904 -1.70468 1.73059 -21.5801 -53.6777 1.01026 -21.1231 1.74131 14.3131 -2.5453 1.59288 -6.11406 27.2248 4.23427 -1.96452 7.32629 3.42623 -10.4566 2.3285 -0.910794 -19.0823 -74.6318 31.1774 -3.86856 -25.191 -1.74633 -11.2065 -3.94675 82.882 -1.04759 -20.6242 1.75213 -15.2708 3.60661 -1.45764 0.51659 29.8236 6.51843 1.0123 -16.1729 0.924916 1.16803e-007 7.47049 6.44171e-007 -1.27831 21.547 1.74964 9 -3.38008e-006 -5.22997e-009 19.5373 -18.7402 17.6764 -0.575 -51.431 3.90177 -10.0702 64.9031 -19.7674 2.13082e-007 -43.5882 -3.90177 28.1914 -20.1179 2.17768 -9 6.86154e-007 -3.1954e-009 -19.7805 -23.3765 -16.4367 0.575 -51.4311 3.90177 -22.7145 65.6326 43.5136 -7.46079e-007 -43.5882 -3.90177 -13.6411 -26.4889 -1.63652 
43.1476 81.2563 -16.914 0.846796 -8.49129 -5.25816 1.23234e-007 14.8421 1.27319e-009 -4.56193 7.75516 0.784657 6.64893 27.3161 3.27471 -2.94784 5.93879 -4.20517 10.8584 2.41798 -0.945791 57.9237 -62.2619 2.5104 3.77631 -24.5904 -1.70468 1.68066 -21.641 -53.8583 1.01026 -21.1231 1.74131 14.8854 -2.23299 1.65677 -6.11406 27.2248 4.23427 -1.96452 7.32629 3.42623 -10.4566 2.3285 -0.910794 -18.9249 -74.5953 31.3503 -3.86856 -25.191 -1.74633 -11.244 -3.97499 82.63 -1.04759 -20.6242 1.75213 -15.1128 3.56635 -1.44586 0.51659 29.8236 6.51843 0.947101 -16.2132 0.959913 1.16803e-007 7.47049 6.44171e-007 -1.23954 21.5294 1.75383 9 -3.38008e-006 -5.22997e-009 19.5469 -18.6906 17.7049 -0.575 -51.431 3.90177 -10.0439 64.8208 -19.6859 2.13082e-007 -43.5882 -3.90177 28.2305 -20.1768 2.19628 -9 6.86154e-007 -3.1954e-009 -19.7404 -23.3424 -16.4323 0.575 -51.4311 3.90177 -22.5657 65.4953 43.4058 -7.46079e-007 -43.5882 -3.90177 -13.6491 -26.4606 -1.63449 
43.1631 81.2779 -16.9004 0.855006 -8.46919 -5.32469 1.23234e-007 14.8421 1.27319e-009 -4.59473 7.7246 0.825798 6.64893 27.3161 3.27471 -2.94784 5.93879 -4.20517 10.8584 2.41798 -0.945791 58.1622 -62.1826 2.7432 3.77631 -24.5904 -1.70468 1.56539 -21.8756 -53.9526 1.01026 -21.1231 1.74131 15.2053 -2.14165 1.69682 -6.11406 27.2248 4.23427 -1.96452 7.32629 3.42623 -10.4566 2.3285 -0.910794 -18.984 -74.5816 31.2273 -3.86856 -25.191 -1.74633 -11.2514 -4.02763 82.5073 -1.04759 -20.6242 1.75213 -15.1089 3.51082 -1.44909 0.51659 29.8236 6.51843 1.10607 -16.3491 0.91039 1.16803e-007 7.47049 6.44171e-007 -1.57463 21.5866 1.85551 9 -3.38008e-006 -5.22997e-009 19.5283 -18.6595 17.7178 -0.575 -51.431 3.90177 -10.0515 64.7779 -19.7111 2.13082e-007 -43.5882 -3.90177 28.2072 -20.1557 2.18881 -9 6.86154e-007 -3.1954e-009 -19.7266 -23.391 -16.3817 0.575 -51.4311 3.90177 -22.6102 65.4813 43.4614 -7.46079e-007 -43.5882 -3.90177 -13.6073 -26.3144 -1.61155 
43.1941 81.3165 -16.8939 0.893157 -8.49956 -5.34718 1.23234e-007 14.8421 1.27319e-009 -4.70749 7.83252 0.730123 6.64893 27.3161 3.27471 -2.94784 5.93879 -4.20517 10.8584 2.41798 -0.945791 58.8641 -61.821 3.47379 3.77631 -24.5904 -1.70468 1.12669 -22.6826 -54.3764 1.01026 -21.1231 1.74131 15.6696 -1.11276 1.68938 -6.11406 27.2248 4.23427 -1.96452 7.32629 3.42623 -10.4566 2.3285 -0.910794 -18.8852 -74.6834 31.1503 -3.86856 -25.191 -1.74633 -11.2842 -4.14961 82.3662 -1.04759 -20.6242 1.75213 -15.0174 3.01578 -1.47236 0.51659 29.8236 6.51843 1.31112 -16.7376 0.939415 1.16803e-007 7.47049 6.44171e-007 -1.68651 21.8084 1.9532 9 -3.38008e-006 -5.22997e-009 19.4308 -18.608 17.6763 -0.575 -51.431 3.90177 -10.033 64.7215 -19.637 2.13082e-007 -43.5882 -3.90177 28.1638 -20.0898 2.16806 -9 6.86154e-007 -3.1954e-009 -19.7787 -23.3294 -16.3978 0.575 -51.4311 3.90177 -22.547 65.3827 43.4388 -7.46079e-007 -43.5882 -3.90177 -13.6252 -26.3336 -1.61642 
